<svg width="15" height="15" viewBox="0 0 15 15" fill="none" xmlns="http://www.w3.org/2000/svg">
<path d="M4.82143 15H1.60714C0.719866 15 0 14.2801 0 13.3929V1.60714C0 0.719866 0.719866 0 1.60714 0H4.82143C5.7087 0 6.42857 0.719866 6.42857 1.60714V13.3929C6.42857 14.2801 5.7087 15 4.82143 15ZM15 13.3929V1.60714C15 0.719866 14.2801 0 13.3929 0H10.1786C9.29129 0 8.57143 0.719866 8.57143 1.60714V13.3929C8.57143 14.2801 9.29129 15 10.1786 15H13.3929C14.2801 15 15 14.2801 15 13.3929Z" fill="black"/>
</svg>
